<svg xmlns="http://www.w3.org/2000/svg" width="186" height="187.448" viewBox="0 0 186 187.448">
  <g id="factory" transform="translate(0 -0.548)">
    <g id="_005---Factory-" data-name="005---Factory-" transform="translate(0 0.548)">
      <path id="Shape" d="M123.433,25.219,96.207,41.542V27.976a3.207,3.207,0,0,0-4.842-2.758L64.138,41.542V27.976A3.207,3.207,0,0,0,59.3,25.219L32.069,41.542V27.976a3.207,3.207,0,0,0-4.842-2.758L0,41.542v6.414H128.276V27.976a3.207,3.207,0,0,0-4.842-2.758Z" transform="translate(0 52.907)" fill="#282828"/>
      <path id="Shape-2" data-name="Shape" d="M114,19.021,95.076,49.785A22.952,22.952,0,0,1,75.513,60.711c-8.434,0-13.18-3.079-15.842-6.542l-.192.128c-25.655,0-25.655-16.034-25.655-16.034l.1-.545a15.367,15.367,0,0,1-12.154-9.909A17.9,17.9,0,0,1,28.853,7.829,20.688,20.688,0,0,1,45.946,6.322c.064.032.16.064.224.1l.481-1.347a41.26,41.26,0,0,1,8.338-2.6C62.846.934,71.6,1.351,77.983,6.161l.738-.673a33.473,33.473,0,0,1,8.306-3.014,23.644,23.644,0,0,1,20.556,3.688A17.837,17.837,0,0,1,114,19.021Z" transform="translate(46.349 1.669)" fill="#ddd"/>
      <g id="Group_6" data-name="Group 6">
        <path id="Shape-3" data-name="Shape" d="M76.444,24.445a3.207,3.207,0,0,1-3.207-3.127,14.53,14.53,0,0,0-5.275-10.477C62.314,6.066,54.39,6.9,50.173,7.824a29.39,29.39,0,0,0-7.5,2.726,3.207,3.207,0,0,1-3-5.667A35.817,35.817,0,0,1,48.8,1.557,26.579,26.579,0,0,1,72.1,5.938a21.053,21.053,0,0,1,7.549,15.22,3.207,3.207,0,0,1-3.13,3.287Z" transform="translate(83.901 -0.548)" fill="#aaa"/>
        <path id="Shape-4" data-name="Shape" d="M69.691,24.347a3.207,3.207,0,0,1-3.207-3.114A14.027,14.027,0,0,0,60.59,10.84C54.083,5.933,45,6.793,40.188,7.739a37.6,37.6,0,0,0-7.7,2.392A3.208,3.208,0,1,1,29.926,4.25a44.38,44.38,0,0,1,9-2.8C49.093-.545,58.146.972,64.454,5.722A20.473,20.473,0,0,1,72.9,21.047a3.207,3.207,0,0,1-3.114,3.3Z" transform="translate(61.792 -0.451)" fill="#aaa"/>
        <path id="Shape-5" data-name="Shape" d="M41.5,41.206c-7.7,0-17.692-3.329-20.588-12.709A20.977,20.977,0,0,1,29.373,4.862,23.837,23.837,0,0,1,49.137,3a46.364,46.364,0,0,1,7.661,3.3,3.207,3.207,0,0,1-3.008,5.663,40.348,40.348,0,0,0-6.609-2.861A17.359,17.359,0,0,0,32.8,10.282a14.659,14.659,0,0,0-5.772,16.323C28.911,32.65,36,34.792,41.5,34.792a3.207,3.207,0,1,1,0,6.414Z" transform="translate(44.119 1.932)" fill="#aaa"/>
        <path id="Shape-6" data-name="Shape" d="M52.862,34.459C24.321,34.459,24,15.41,24,15.218a3.207,3.207,0,0,1,6.414-.032c0,.6.641,12.86,22.448,12.86a3.207,3.207,0,1,1,0,6.414Z" transform="translate(52.965 24.713)" fill="#aaa"/>
        <path id="Shape-7" data-name="Shape" d="M53.448,36.448C35.692,36.448,31,23.861,31,17.207a3.207,3.207,0,0,1,6.414,0c.019,1.334.641,12.844,16.034,12.844a3.207,3.207,0,0,1,0,6.414Z" transform="translate(68.414 29.138)" fill="#aaa"/>
        <path id="Shape-8" data-name="Shape" d="M49.928,11H61.316a3.928,3.928,0,0,1,3.925,3.928V30.241H46V14.928A3.929,3.929,0,0,1,49.928,11Z" transform="translate(101.517 22.517)" fill="#aaa"/>
      </g>
      <path id="Shape-9" data-name="Shape" d="M81.483,88.759,71.862,15H52.621L43,88.759Z" transform="translate(94.897 31.345)" fill="#282828"/>
      <path id="Shape-10" data-name="Shape" d="M38,37H98.844a3.293,3.293,0,0,1,3.293,3.293V97.931H38Z" transform="translate(83.862 79.897)" fill="#282828"/>
      <path id="Shape-11" data-name="Shape" d="M58.241,47.414H42.207a3.207,3.207,0,1,1,0-6.414H58.241a3.207,3.207,0,1,1,0,6.414Z" transform="translate(86.069 88.724)" fill="#e4e0da"/>
      <path id="Shape-12" data-name="Shape" d="M67.241,47.414H51.207a3.207,3.207,0,0,1,0-6.414H67.241a3.207,3.207,0,1,1,0,6.414Z" transform="translate(105.931 88.724)" fill="#e4e0da"/>
      <rect id="Rectangle-path" width="128.276" height="83.379" transform="translate(0 94.448)" fill="#191919"/>
      <path id="Shape-13" data-name="Shape" d="M28.862,37.207a3.207,3.207,0,0,1-3.207,3.207H0V34H25.655A3.207,3.207,0,0,1,28.862,37.207Z" transform="translate(0 73.276)" fill="#e3e0db"/>
      <path id="Shape-14" data-name="Shape" d="M49.483,40.414H14.207a3.207,3.207,0,0,1,0-6.414H49.483a3.207,3.207,0,0,1,0,6.414Z" transform="translate(24.276 73.276)" fill="#e3e0db"/>
      <rect id="Rectangle-path-2" data-name="Rectangle-path" width="22.448" height="19.241" rx="1" transform="translate(12.828 132.931)" fill="#e3e0db"/>
      <rect id="Rectangle-path-3" data-name="Rectangle-path" width="22.448" height="19.241" rx="1" transform="translate(48.103 132.931)" fill="#e3e0db"/>
      <path id="Shape-15" data-name="Shape" d="M58.07,42.409V93.517H26V42.409A3.322,3.322,0,0,1,29.208,39H54.863A3.322,3.322,0,0,1,58.07,42.409Z" transform="translate(57.378 84.31)" fill="#e4e0da"/>
      <path id="Shape-16" data-name="Shape" d="M48.448,45.207a3.207,3.207,0,0,1-3.207,3.207H26V42H45.241A3.207,3.207,0,0,1,48.448,45.207Z" transform="translate(57.379 90.931)" fill="#282828"/>
      <path id="Shape-17" data-name="Shape" d="M48.448,49.207a3.207,3.207,0,0,1-3.207,3.207H26V46H45.241A3.207,3.207,0,0,1,48.448,49.207Z" transform="translate(57.379 99.759)" fill="#282828"/>
      <path id="Shape-18" data-name="Shape" d="M48.448,53.207a3.207,3.207,0,0,1-3.207,3.207H26V50H45.241A3.207,3.207,0,0,1,48.448,53.207Z" transform="translate(57.379 108.586)" fill="#282828"/>
      <path id="Shape-19" data-name="Shape" d="M49.207,48H62.034a3.207,3.207,0,0,1,3.207,3.207V70.448H46V51.207A3.207,3.207,0,0,1,49.207,48Z" transform="translate(101.517 104.173)" fill="#e4e0da"/>
      <path id="Shape-20" data-name="Shape" d="M186,55H0v9.621a3.207,3.207,0,0,0,3.207,3.207H182.793A3.207,3.207,0,0,0,186,64.621Z" transform="translate(0 119.621)" fill="#818181"/>
    </g>
  </g>
</svg>
