<svg xmlns="http://www.w3.org/2000/svg" width="163.466" height="190.446" viewBox="0 0 163.466 190.446">
  <g id="idea" transform="translate(-36.267)">
    <path id="SVGCleanerId_0" d="M149.692,88.533a11.514,11.514,0,0,0-11.506,11.506v1.587c-3.968.4-7.539,1.984-9.919,5.555a8.321,8.321,0,0,0-1.587,4.364c-2.381,0-4.761,1.587-6.348,3.571a8.054,8.054,0,0,0-.4,6.745,17.892,17.892,0,0,0,7.142,32.535,12.637,12.637,0,0,0,0,10.713,12.785,12.785,0,0,0,16.664,6.348,11.581,11.581,0,0,0-.793,3.571,8.729,8.729,0,1,0,17.458,0V100.039A10.864,10.864,0,0,0,149.692,88.533Z" transform="translate(-47.563 -55.602)" fill="#f3705a"/>
    <g id="Group_16" data-name="Group 16" transform="translate(64.437 32.931)">
      <path id="SVGCleanerId_0_1_" d="M149.692,88.533a11.514,11.514,0,0,0-11.506,11.506v1.587c-3.968.4-7.539,1.984-9.919,5.555a8.321,8.321,0,0,0-1.587,4.364c-2.381,0-4.761,1.587-6.348,3.571a8.054,8.054,0,0,0-.4,6.745,17.892,17.892,0,0,0,7.142,32.535,12.637,12.637,0,0,0,0,10.713,12.785,12.785,0,0,0,16.664,6.348,11.581,11.581,0,0,0-.793,3.571,8.729,8.729,0,1,0,17.458,0V100.039A10.864,10.864,0,0,0,149.692,88.533Z" transform="translate(-112 -88.533)" fill="#4d4b4b"/>
    </g>
    <g id="Group_17" data-name="Group 17" transform="translate(62.453 30.947)">
      <path id="Path_25" data-name="Path 25" d="M148.723,182.391a10.668,10.668,0,0,1-10.713-10.713v-.4c-6.348.793-13.093-2.381-15.871-8.332a15.363,15.363,0,0,1-1.19-10.316,20.121,20.121,0,0,1-14.283-19.441,19.551,19.551,0,0,1,7.539-15.474,9.886,9.886,0,0,1,1.19-6.745,10.952,10.952,0,0,1,6.348-4.761,14.09,14.09,0,0,1,1.587-3.571,15.8,15.8,0,0,1,9.522-6.348A13.835,13.835,0,0,1,146.343,83.2a13.379,13.379,0,0,1,13.49,13.49v74.591A11.091,11.091,0,0,1,148.723,182.391Zm-7.935-16.664a3.01,3.01,0,0,1,1.587.793,1.87,1.87,0,0,1,.4,2.381c0,.793-.4,1.587-.4,2.381a6.348,6.348,0,1,0,12.7,0V96.69a9.125,9.125,0,1,0-18.251,0v1.19c0,.793,0,1.19-.4,1.587a2.061,2.061,0,0,1-1.587.793,12.048,12.048,0,0,0-8.332,4.761,7.478,7.478,0,0,0-1.587,3.571,2.637,2.637,0,0,1-1.984,1.587,4.879,4.879,0,0,0-4.364,2.777,6.637,6.637,0,0,0-.4,4.761,2.63,2.63,0,0,1-.793,2.777,15.838,15.838,0,0,0,6.348,28.567c.793,0,1.19.4,1.587,1.19a1.8,1.8,0,0,1,0,1.984,11.115,11.115,0,0,0,0,8.729,10.611,10.611,0,0,0,13.887,5.158A6.246,6.246,0,0,1,140.788,165.727Z" transform="translate(-106.666 -83.2)" fill="#191919"/>
      <path id="Path_26" data-name="Path 26" d="M192.046,121.125a2.381,2.381,0,1,0,0-4.761A19.051,19.051,0,0,1,182.126,112a11.736,11.736,0,0,0-.793,3.968v1.587c3.174,1.587,6.348,3.174,10.713,3.57Z" transform="translate(-153.559 -101.287)" fill="#191919"/>
      <path id="Path_27" data-name="Path 27" d="M156.7,161.236h.4a2.515,2.515,0,0,0,2.381-1.984c.4-1.19-.793-2.381-1.984-2.777-6.348-1.19-8.332-4.761-9.125-7.142h0A8.317,8.317,0,0,0,144,150.92,16.692,16.692,0,0,0,156.7,161.236Z" transform="translate(-130.114 -124.734)" fill="#191919"/>
      <path id="Path_28" data-name="Path 28" d="M148.983,164.514v-2.381c-2.381,1.984-4.761,6.348-2.381,13.093.4.793,1.984,1.984,3.174,1.19a2.194,2.194,0,0,0,1.19-3.174c-1.984-5.158.793-7.142,1.19-7.539l.793-.793h-3.968v-.4Z" transform="translate(-131.128 -132.773)" fill="#191919"/>
      <path id="Path_29" data-name="Path 29" d="M149.38,236.322a11.95,11.95,0,0,0-.793-10.316c-.4-1.19-1.984-1.587-3.174-1.19s-1.587,1.984-1.19,3.174c1.19,2.381,1.587,4.364.793,6.348-1.19,3.571-5.555,5.158-5.951,5.158a.389.389,0,0,0-.4.4,18.693,18.693,0,0,0,6.745,1.587h0A10.65,10.65,0,0,0,149.38,236.322Z" transform="translate(-126.764 -172.046)" fill="#191919"/>
      <path id="Path_30" data-name="Path 30" d="M172.82,240.558c-1.587-3.571-3.571-5.158-5.158-5.555a10.511,10.511,0,0,0-7.142.4,8.317,8.317,0,0,1-1.587,4.364h0a2.445,2.445,0,0,0,2.777.4,8.081,8.081,0,0,1,4.364-.793,3.48,3.48,0,0,1,2.381,2.777,2.679,2.679,0,0,0,2.381,1.587h.793C172.82,243.335,173.216,241.749,172.82,240.558Z" transform="translate(-139.492 -178.266)" fill="#191919"/>
      <path id="Path_31" data-name="Path 31" d="M197.652,295.7a4.379,4.379,0,0,1,3.174,0c1.19.4,2.777,0,3.174-1.19s0-2.777-1.19-3.174a8.981,8.981,0,0,0-7.142.4c-3.968,1.587-6.348,5.951-7.935,9.125,1.984,0,4.364,0,6.348-1.19A7.1,7.1,0,0,1,197.652,295.7Z" transform="translate(-157.579 -213.568)" fill="#191919"/>
      <path id="Path_32" data-name="Path 32" d="M188.2,283.655h0a19.36,19.36,0,0,1,4.364-1.587c-1.587-5.555-6.745-7.935-9.522-7.935a2.413,2.413,0,0,0-.794,4.761C182.647,278.894,187.408,279.291,188.2,283.655Z" transform="translate(-152.889 -203.113)" fill="#191919"/>
      <path id="Path_33" data-name="Path 33" d="M215.834,214.4c-3.174,1.587-7.539,7.142-4.364,16.267a3.341,3.341,0,0,0,2.777,1.587c1.19-.4,2.381-1.984,1.984-3.174-2.777-7.539,1.587-10.316,2.381-10.316a5.476,5.476,0,0,0,1.19-1.587A14.253,14.253,0,0,1,215.834,214.4Z" transform="translate(-171.793 -165.598)" fill="#191919"/>
      <path id="Path_34" data-name="Path 34" d="M200.282,144.779c-.4,1.19,0,2.777,1.19,3.174.4,0,.793.4,1.19.4a2.182,2.182,0,0,0,1.984-1.19c2.777-5.555,8.332-5.555,11.506-5.158V137.24C210.994,136.447,203.853,137.637,200.282,144.779Z" transform="translate(-165.366 -117.005)" fill="#191919"/>
      <path id="Path_35" data-name="Path 35" d="M220.079,201a7.848,7.848,0,0,1-1.984-5.555,2.381,2.381,0,1,0-4.761,0,11.952,11.952,0,0,0,3.571,9.125,15.473,15.473,0,0,0,7.539,3.174v-4.761A8.8,8.8,0,0,1,220.079,201Z" transform="translate(-173.657 -152.2)" fill="#191919"/>
    </g>
    <path id="SVGCleanerId_1" d="M281.509,88.533a11.514,11.514,0,0,1,11.506,11.506v1.587c3.968.4,7.539,1.984,9.919,5.555a8.321,8.321,0,0,1,1.587,4.364c2.381,0,4.761,1.587,6.348,3.571a8.054,8.054,0,0,1,.4,6.745,17.891,17.891,0,0,1-7.142,32.535,12.637,12.637,0,0,1,0,10.713,12.785,12.785,0,0,1-16.664,6.348,11.582,11.582,0,0,1,.793,3.571,8.729,8.729,0,0,1-17.458,0V100.039C270,93.691,275.161,88.533,281.509,88.533Z" transform="translate(-147.242 -55.602)" fill="#f3705a"/>
    <g id="Group_18" data-name="Group 18" transform="translate(123.474 32.931)">
      <path id="SVGCleanerId_1_1_" d="M281.509,88.533a11.514,11.514,0,0,1,11.506,11.506v1.587c3.968.4,7.539,1.984,9.919,5.555a8.321,8.321,0,0,1,1.587,4.364c2.381,0,4.761,1.587,6.348,3.571a8.054,8.054,0,0,1,.4,6.745,17.891,17.891,0,0,1-7.142,32.535,12.637,12.637,0,0,1,0,10.713,12.785,12.785,0,0,1-16.664,6.348,11.582,11.582,0,0,1,.793,3.571,8.729,8.729,0,0,1-17.458,0V100.039C270,93.691,275.161,88.533,281.509,88.533Z" transform="translate(-270.716 -88.533)" fill="#4d4b4b"/>
    </g>
    <g id="Group_19" data-name="Group 19" transform="translate(120.381 30.947)">
      <path id="Path_36" data-name="Path 36" d="M262.4,171.281V96.69A13.379,13.379,0,0,1,275.89,83.2c7.142,0,13.49,5.951,13.49,13.093a15.794,15.794,0,0,1,9.522,6.348,9.806,9.806,0,0,1,1.587,3.571,8.742,8.742,0,0,1,6.348,4.761,10.288,10.288,0,0,1,1.19,6.745,20.142,20.142,0,0,1,7.539,15.474,20.487,20.487,0,0,1-14.283,19.441,15.363,15.363,0,0,1-1.19,10.316,14.411,14.411,0,0,1-15.871,8.332v.4a10.668,10.668,0,0,1-10.713,10.713A11.09,11.09,0,0,1,262.4,171.281Zm19.838-5.555a10.611,10.611,0,0,0,13.887-5.158c1.19-2.777,1.587-5.951,0-8.729a1.8,1.8,0,0,1,0-1.984c.4-.793.793-1.19,1.587-1.19A15.744,15.744,0,0,0,310.8,133.192,16,16,0,0,0,304.06,120.1a2.453,2.453,0,0,1-.793-2.777c.793-1.587.4-3.174-.4-4.761s-2.381-2.381-4.364-2.777a1.815,1.815,0,0,1-1.984-1.587,9.8,9.8,0,0,0-1.587-3.571,11.287,11.287,0,0,0-8.332-4.761,2.063,2.063,0,0,1-1.587-.793,2.385,2.385,0,0,1-.4-1.587v-1.19a9.125,9.125,0,1,0-18.251,0v74.989a6.348,6.348,0,1,0,12.7,0,7.745,7.745,0,0,0-.4-2.777,2.435,2.435,0,0,1,.4-2.381,3.007,3.007,0,0,1,1.587-.793A3,3,0,0,0,282.238,165.727Z" transform="translate(-262.4 -83.2)" fill="#191919"/>
      <path id="Path_37" data-name="Path 37" d="M301.586,123.135a1.986,1.986,0,0,1-1.984-2.381,2.56,2.56,0,0,1,2.381-2.381c3.968.4,7.935-1.587,10.316-3.174a13.494,13.494,0,0,1,.4,3.968c0,.4-.4.793-.4,1.587a30.313,30.313,0,0,1-10.713,2.38Z" transform="translate(-285.716 -103.297)" fill="#191919"/>
      <path id="Path_38" data-name="Path 38" d="M330.112,156.97h-.4a2.515,2.515,0,0,1-2.381-1.984c-.4-1.19.793-2.381,1.984-2.777,6.348-1.19,8.332-4.761,9.125-7.142h0a8.317,8.317,0,0,1,4.364,1.587A16.692,16.692,0,0,1,330.112,156.97Z" transform="translate(-303.132 -122.055)" fill="#191919"/>
      <path id="Path_39" data-name="Path 39" d="M349.568,162.381V160c2.381,1.984,4.761,6.348,2.381,13.093-.4.793-1.984,1.984-3.174,1.19a2.194,2.194,0,0,1-1.19-3.174c1.984-5.158-.793-7.142-1.19-7.539l-.793-.793h3.968v-.4Z" transform="translate(-314.653 -131.433)" fill="#191919"/>
      <path id="Path_40" data-name="Path 40" d="M342.157,235.729a11.585,11.585,0,0,1-.4-10.316A2.509,2.509,0,1,1,346.521,227c-.793,2.777-.793,4.761,0,6.348,1.984,3.174,6.348,3.968,6.348,3.968a.389.389,0,0,1,.4.4,20.742,20.742,0,0,1-6.348,2.381h0A10.1,10.1,0,0,1,342.157,235.729Z" transform="translate(-311.607 -171.453)" fill="#191919"/>
      <path id="Path_41" data-name="Path 41" d="M315.482,240.558c1.587-3.571,3.571-5.158,5.158-5.555a10.511,10.511,0,0,1,7.142.4,8.317,8.317,0,0,0,1.587,4.364h0a2.445,2.445,0,0,1-2.777.4,8.081,8.081,0,0,0-4.364-.793,3.48,3.48,0,0,0-2.381,2.777,2.679,2.679,0,0,1-2.381,1.587h-.793C315.482,243.335,315.085,241.749,315.482,240.558Z" transform="translate(-295.644 -178.266)" fill="#191919"/>
      <path id="Path_42" data-name="Path 42" d="M296.183,296.976l3.174-.4c-.793-2.777-1.984-6.348-4.364-8.332a10.011,10.011,0,0,0-6.745-2.381,2.381,2.381,0,1,0,0,4.761,4.505,4.505,0,0,1,3.174,1.19,9.46,9.46,0,0,1,2.381,4.364,8.306,8.306,0,0,0,2.381,1.587Z" transform="translate(-277.138 -210.482)" fill="#191919"/>
      <path id="Path_43" data-name="Path 43" d="M303.7,284.009h0a34.356,34.356,0,0,0-3.968-2.777c2.777-5.158,8.729-5.555,11.506-5.158,1.19.4,2.381,1.587,1.984,2.777a2.162,2.162,0,0,1-2.777,1.984S305.684,280.041,303.7,284.009Z" transform="translate(-285.846 -204.26)" fill="#191919"/>
      <path id="Path_44" data-name="Path 44" d="M280.9,214.4c3.174,1.587,7.539,7.142,4.364,16.267a3.341,3.341,0,0,1-2.777,1.587c-1.19-.4-2.381-1.984-1.984-3.174,2.777-7.539-1.587-10.316-2.381-10.316a2.061,2.061,0,0,1-.793-1.587A21.819,21.819,0,0,0,280.9,214.4Z" transform="translate(-271.778 -165.598)" fill="#191919"/>
      <path id="Path_45" data-name="Path 45" d="M284.671,144.779c.4,1.19,0,2.777-1.19,3.174-.4,0-.793.4-1.19.4a2.182,2.182,0,0,1-1.984-1.19C277.53,141.6,271.975,141.6,268.8,142V137.24C274.355,136.447,281.5,137.637,284.671,144.779Z" transform="translate(-266.42 -117.005)" fill="#191919"/>
      <path id="Path_46" data-name="Path 46" d="M273.164,201a7.849,7.849,0,0,0,1.984-5.555,2.381,2.381,0,1,1,4.761,0,11.952,11.952,0,0,1-3.571,9.125,15.473,15.473,0,0,1-7.539,3.174v-4.761A8.8,8.8,0,0,0,273.164,201Z" transform="translate(-266.419 -152.2)" fill="#191919"/>
    </g>
    <path id="Path_47" data-name="Path 47" d="M110.933,240a56.174,56.174,0,0,0,10.713,21.822,92.859,92.859,0,0,1,19.045,41.66h48.4a89.564,89.564,0,0,1,19.045-41.263A55.894,55.894,0,0,0,219.249,240Z" transform="translate(-46.893 -150.728)" fill="#e4e0da"/>
    <path id="Path_48" data-name="Path 48" d="M217.6,489.6a16.189,16.189,0,0,0,14.283,8.332,16.513,16.513,0,0,0,14.283-8.332Z" transform="translate(-113.883 -307.486)" fill="#282828"/>
    <path id="Path_49" data-name="Path 49" d="M239.338,432.886V410.667H190.933v22.219a7.959,7.959,0,0,0,7.935,7.935h31.741C235.371,440.821,239.338,437.25,239.338,432.886Z" transform="translate(-97.136 -257.913)" fill="#191919"/>
    <g id="Group_20" data-name="Group 20" transform="translate(88.64 147.992)">
      <path id="Path_50" data-name="Path 50" d="M177.067,448.891h0a5.252,5.252,0,0,0,5.158,5.158h48.8a5.252,5.252,0,0,0,5.158-5.158h0a5.252,5.252,0,0,0-5.158-5.158h-48.8A5,5,0,0,0,177.067,448.891Z" transform="translate(-177.067 -426.672)" fill="#282828"/>
      <path id="Path_51" data-name="Path 51" d="M177.067,403.024h0a5.252,5.252,0,0,0,5.158,5.158h48.8a5.252,5.252,0,0,0,5.158-5.158h0a5.252,5.252,0,0,0-5.158-5.158h-48.8A5,5,0,0,0,177.067,403.024Z" transform="translate(-177.067 -397.866)" fill="#282828"/>
    </g>
    <g id="Group_21" data-name="Group 21" transform="translate(36.267)">
      <path id="Path_52" data-name="Path 52" d="M247.961,19.838h0a4.584,4.584,0,0,1-4.761-4.761V4.761A4.584,4.584,0,0,1,247.961,0h0a4.824,4.824,0,0,1,4.761,4.761V15.077A4.824,4.824,0,0,1,247.961,19.838Z" transform="translate(-166.228)" fill="#fff"/>
      <path id="Path_53" data-name="Path 53" d="M152.428,45.983h0c-2.381,1.19-5.158.793-6.348-1.587l-5.158-9.125a4.863,4.863,0,0,1,1.587-6.348h0a4.863,4.863,0,0,1,6.348,1.587l5.158,9.125C155.6,41.618,154.809,44.4,152.428,45.983Z" transform="translate(-101.643 -17.813)" fill="#fff"/>
      <path id="Path_54" data-name="Path 54" d="M81.8,116.382h0a4.725,4.725,0,0,1-6.348,1.984l-9.125-5.158a4.224,4.224,0,0,1-1.587-6.348h0a4.224,4.224,0,0,1,6.348-1.587l9.125,5.158C82.2,111.224,82.99,114,81.8,116.382Z" transform="translate(-53.63 -65.596)" fill="#fff"/>
      <path id="Path_55" data-name="Path 55" d="M56.105,211.694h0a4.584,4.584,0,0,1-4.761,4.761H41.028a4.824,4.824,0,0,1-4.761-4.761h0a4.824,4.824,0,0,1,4.761-4.761H51.344A4.825,4.825,0,0,1,56.105,211.694Z" transform="translate(-36.267 -129.961)" fill="#fff"/>
      <path id="Path_56" data-name="Path 56" d="M81.183,299.309h0c1.19,2.381.793,5.158-1.587,6.348l-9.125,5.158a4.863,4.863,0,0,1-6.348-1.587h0a4.863,4.863,0,0,1,1.587-6.348l9.125-5.158A4.864,4.864,0,0,1,81.183,299.309Z" transform="translate(-53.409 -186.629)" fill="#fff"/>
      <path id="Path_57" data-name="Path 57" d="M399.077,299.727h0a4.725,4.725,0,0,1,6.348-1.984l9.125,5.158a4.224,4.224,0,0,1,1.587,6.348h0a4.224,4.224,0,0,1-6.348,1.587l-8.729-4.761C398.68,304.488,397.886,301.711,399.077,299.727Z" transform="translate(-263.781 -186.65)" fill="#fff"/>
      <path id="Path_58" data-name="Path 58" d="M422.4,211.694h0a4.584,4.584,0,0,1,4.761-4.761h10.316a4.824,4.824,0,0,1,4.761,4.761h0a4.824,4.824,0,0,1-4.761,4.761H427.161A4.824,4.824,0,0,1,422.4,211.694Z" transform="translate(-278.772 -129.961)" fill="#fff"/>
      <path id="Path_59" data-name="Path 59" d="M399.97,116.161h0c-1.19-2.381-.793-5.158,1.587-6.348l9.125-5.158a4.863,4.863,0,0,1,6.348,1.587h0a4.863,4.863,0,0,1-1.587,6.348l-9.126,5.158A4.224,4.224,0,0,1,399.97,116.161Z" transform="translate(-264.277 -65.376)" fill="#fff"/>
      <path id="Path_60" data-name="Path 60" d="M335.126,45.533h0c-2.381-1.587-3.174-4.364-1.587-6.348l5.158-9.125a4.224,4.224,0,0,1,6.348-1.587h0a4.224,4.224,0,0,1,1.587,6.348l-5.158,9.125A4.863,4.863,0,0,1,335.126,45.533Z" transform="translate(-222.446 -17.363)" fill="#fff"/>
    </g>
  </g>
</svg>
