<svg xmlns="http://www.w3.org/2000/svg" width="164" height="162.456" viewBox="0 0 164 162.456">
  <g id="news" transform="translate(0)">
    <path id="Path_61" data-name="Path 61" d="M199.767,85.979a2.575,2.575,0,0,1-2.3-1.422L182.161,53.99a2.574,2.574,0,0,1,4.6-2.3l13,25.972,13-25.972a2.573,2.573,0,1,1,4.6,2.3L202.067,84.557a2.577,2.577,0,0,1-2.3,1.422Zm0,0" transform="translate(-119.483 -33.008)" fill="#191919"/>
    <path id="Path_62" data-name="Path 62" d="M164,157.808v90.223a11.133,11.133,0,0,1-11.336,10.917H11.335A11.135,11.135,0,0,1,0,248.032V157.808a11.135,11.135,0,0,1,11.336-10.917H152.664A11.133,11.133,0,0,1,164,157.808Zm-22.668,38.937a10.743,10.743,0,1,0-11.147-10.735A10.944,10.944,0,0,0,141.331,196.745ZM118.663,247.3V160.175H13.226V247.3Zm0,0" transform="translate(0 -96.493)" fill="#191919"/>
    <path id="Path_63" data-name="Path 63" d="M401.732,240.356a11.153,11.153,0,1,1-11.144-10.735A10.944,10.944,0,0,1,401.732,240.356Zm0,0" transform="translate(-249.257 -150.839)" fill="#e4e0da"/>
    <path id="Path_64" data-name="Path 64" d="M143.986,185.609v87.129H38.55V185.609Zm0,0" transform="translate(-25.324 -121.927)" fill="#4d4b4b"/>
    <path id="Path_65" data-name="Path 65" d="M204.66,350.52h8.426a11.674,11.674,0,0,1,11.672,11.672v10.317H195.29V356.353Zm0,0" transform="translate(-128.287 -230.258)" fill="#191919"/>
    <path id="Path_66" data-name="Path 66" d="M200.439,218.067H176.748c-.113,0-.229,0-.343-.011a5.838,5.838,0,0,1,.343-11.665h12.019a11.673,11.673,0,0,1,11.672,11.676Zm0,0" transform="translate(-112.27 -135.579)" fill="#191919"/>
    <path id="Path_67" data-name="Path 67" d="M153.409,272.494a17.614,17.614,0,0,1-8.28-14.887V247.332c.868.106,8.52.834,14.342-6.93v-.011c.114.007.231.011.343.011h19.495v17.206a17.631,17.631,0,0,1-7.6,14.445,16.6,16.6,0,0,1-18.3.442Zm0,0" transform="translate(-95.336 -157.914)" fill="#fff"/>
    <path id="Path_68" data-name="Path 68" d="M187.563,338.644v.151l-9.371,5.833-8.93-5.833v-5.681a16.6,16.6,0,0,0,18.3-.442Zm0,0" transform="translate(-111.189 -218.534)" fill="#fff"/>
    <path id="Path_69" data-name="Path 69" d="M159.471,220.381v.011c-5.822,7.764-13.473,7.036-14.342,6.93v-1.39a17.107,17.107,0,0,1,11.093-16l.009.013a5.837,5.837,0,0,0,3.239,10.438Zm0,0" transform="translate(-95.336 -137.904)" fill="#191919"/>
    <path id="Path_70" data-name="Path 70" d="M396.632,402.205H373.964a2.573,2.573,0,1,1,0-5.146h22.668a2.573,2.573,0,0,1,0,5.146Zm0,0" transform="translate(-243.968 -260.83)" fill="#e4e0da"/>
    <path id="Path_71" data-name="Path 71" d="M396.632,339.166H373.964a2.573,2.573,0,1,1,0-5.146h22.668a2.573,2.573,0,0,1,0,5.146Zm0,0" transform="translate(-243.968 -219.419)" fill="#e4e0da"/>
    <path id="Path_72" data-name="Path 72" d="M162.852,281.277a5.661,5.661,0,0,1-5.661-5.661,2.745,2.745,0,0,1,5.49,0,.172.172,0,0,0,.172.172.175.175,0,0,0,.172-.172,2.745,2.745,0,0,1,5.49,0A5.669,5.669,0,0,1,162.852,281.277Zm0,0" transform="translate(-103.26 -179.25)" fill="#191919"/>
    <path id="Path_73" data-name="Path 73" d="M205.352,281.277a5.661,5.661,0,0,1-5.661-5.661,2.745,2.745,0,0,1,5.49,0,.172.172,0,0,0,.172.172.175.175,0,0,0,.172-.172,2.745,2.745,0,0,1,5.49,0A5.669,5.669,0,0,1,205.352,281.277Zm0,0" transform="translate(-131.178 -179.25)" fill="#191919"/>
    <path id="Path_74" data-name="Path 74" d="M267.92,0a11.707,11.707,0,0,0-11.861,11.52,11.868,11.868,0,0,0,23.726,0A11.711,11.711,0,0,0,267.92,0Zm0,0" transform="translate(-168.206)" fill="#262626"/>
    <path id="Path_75" data-name="Path 75" d="M153.662,1A11.707,11.707,0,0,0,141.8,12.52a11.866,11.866,0,0,0,23.722,0A11.709,11.709,0,0,0,153.662,1Zm0,0" transform="translate(-93.15 -0.657)" fill="#262626"/>
    <path id="Path_76" data-name="Path 76" d="M130.872,350.52l8.93,5.833v16.156H110.82V362.192a11.674,11.674,0,0,1,11.672-11.672Zm0,0" transform="translate(-72.799 -230.258)" fill="#616161"/>
  </g>
</svg>
